<svg id="Layer_1" data-name="Layer 1" xmlns="http://www.w3.org/2000/svg" viewBox="0 0 312.19 111.77"><defs><style>.cls-1{font-size:43.8px;font-family:BebasNeueBold, Bebas Neue;font-weight:700;letter-spacing:0.05em;}.cls-1,.cls-2,.cls-6{fill:#231f20;}.cls-2,.cls-4{font-size:14.7px;font-family:Baskerville-BT, Baskerville BT;letter-spacing:-0.02em;}.cls-3,.cls-4{fill:#2e3192;}.cls-5,.cls-7{fill:none;stroke:#231f20;stroke-miterlimit:10;}.cls-5{stroke-width:0.5px;}</style></defs><title>ILReader_Logo-with-tagline</title><text class="cls-1" transform="translate(0 95.49)">READER</text><text class="cls-2" transform="translate(137.55 94.71)">an<tspan class="cls-3" x="15.73" y="0"> </tspan><tspan x="19.52" y="0">inter</tspan><tspan class="cls-3" x="49.88" y="0">lingual </tspan><tspan x="97.4" y="0">reading tool</tspan></text><text class="cls-4" transform="translate(187.9 107.62)">linear</text><line class="cls-5" x1="166.85" y1="97.49" x2="166.85" y2="104.17"/><line class="cls-5" x1="167.02" y1="103.93" x2="187.39" y2="103.93"/><path class="cls-6" d="M18.39,37.94c0,.24-.22.36-.65.36l-1.86-.12q-1.74-.12-2.19-.12-1.54,0-2.33.08L9.6,38.3Q9,38.3,9,37.94t.57-.49a9.22,9.22,0,0,0,1.38-.4,1.45,1.45,0,0,0,.79-.73,4.68,4.68,0,0,0,.18-1.58v-11a3.42,3.42,0,0,0-.12-1.11.88.88,0,0,0-.57-.47,4.58,4.58,0,0,0-1.28-.2q-.83,0-.83-.32t.4-.4q.73-.12,1.26-.24,1.3-.28,2.29-.61l2-.65q.44,0,.45.61V34.74a5.94,5.94,0,0,0,.14,1.58,1.3,1.3,0,0,0,.83.73,6.05,6.05,0,0,0,1.15.32Q18.39,37.53,18.39,37.94Z" transform="translate(-7.82 -11.61)"/><path class="cls-6" d="M42,37.95q0,.36-.61.36l-1.94-.12q-1.78-.12-2.15-.12-1.5,0-2.29.08l-1.76.16c-.43,0-.65-.15-.65-.45s.27-.38.81-.49a5,5,0,0,0,1.13-.32,1.36,1.36,0,0,0,.81-.75,5.28,5.28,0,0,0,.16-1.56V25.55q0-4.29-3.81-4.29a4.69,4.69,0,0,0-3.6,1.66,6,6,0,0,0-1.5,4.17v7.66a5.67,5.67,0,0,0,.14,1.56,1.44,1.44,0,0,0,.83.75,6,6,0,0,0,1.15.32q.79.16.79.57t-.65.36l-1.9-.12q-1.74-.12-2.15-.12-1.5,0-2.31.08l-1.78.16c-.4,0-.61-.15-.61-.45s.27-.38.81-.49A5,5,0,0,0,22,37.06a1.36,1.36,0,0,0,.81-.75A5.28,5.28,0,0,0,23,34.75V25a7.21,7.21,0,0,0-.18-1.9,1.53,1.53,0,0,0-.79-.93,3.91,3.91,0,0,0-1.13-.26q-.81-.1-.81-.38t1.5-.63a18.39,18.39,0,0,0,2.61-.71,9.38,9.38,0,0,1,1.24-.41q.61,0,.73,1.46t.2,2.51a7.47,7.47,0,0,1,6.68-3.85,6.48,6.48,0,0,1,4.46,1.38,5.1,5.1,0,0,1,1.54,4v9.44a5.67,5.67,0,0,0,.14,1.56,1.44,1.44,0,0,0,.83.75,6,6,0,0,0,1.15.32Q42,37.54,42,37.95Z" transform="translate(-7.82 -11.61)"/><path class="cls-6" d="M55.49,36.09q0,.85-1.4,1.72a6.43,6.43,0,0,1-3.46.87q-2.67,0-3.69-1.17a5.94,5.94,0,0,1-1-3.89v-12H44.68q-.77,0-.77-.37a5.3,5.3,0,0,1,1.18-1,14.24,14.24,0,0,0,1.59-1.48,13.43,13.43,0,0,0,1.59-2.13q.53-.85.73-.85c.24,0,.37.19.37.57v4.06h3.7q1.16,0,1.17.61T53,21.63H49.37V33.82A5.06,5.06,0,0,0,50,36.61a2.26,2.26,0,0,0,2,.85,2.35,2.35,0,0,0,1.6-.63q.71-.63,1.44-1.32Q55.49,35.52,55.49,36.09Z" transform="translate(-7.82 -11.61)"/><path class="cls-6" d="M73.76,26.24q0,.61-.18.75a1.66,1.66,0,0,1-.87.14H60.84a9.5,9.5,0,0,0-.12,1q0,.57,0,1a9,9,0,0,0,1.82,5.9,5.79,5.79,0,0,0,4.7,2.24,5.56,5.56,0,0,0,4.29-1.73l.63-.68a.69.69,0,0,1,.51-.23c.27,0,.41.15.41.45q0,1.11-1.82,2.29A9.33,9.33,0,0,1,66,38.84a9.19,9.19,0,0,1-6.74-2.58,8.67,8.67,0,0,1-2.61-6.43,10.23,10.23,0,0,1,2.67-6.9,9,9,0,0,1,6.89-3,7.87,7.87,0,0,1,5.39,1.92A5.74,5.74,0,0,1,73.76,26.24ZM70.07,25A4.43,4.43,0,0,0,69,21.9a3.75,3.75,0,0,0-2.9-1.16,4.49,4.49,0,0,0-3.32,1.35A6.69,6.69,0,0,0,61.08,26h8.26Q70.07,26,70.07,25Z" transform="translate(-7.82 -11.61)"/><path class="cls-6" d="M91.5,22.35a1.8,1.8,0,0,1-.36,1.17,1.24,1.24,0,0,1-1,.45A1.45,1.45,0,0,1,88.74,23l-.49-1a1.69,1.69,0,0,0-1.3-.4A3.59,3.59,0,0,0,84,23.1a6.23,6.23,0,0,0-1.17,4v7.66A5.94,5.94,0,0,0,83,36.33a1.3,1.3,0,0,0,.83.73,6,6,0,0,0,1.15.32q.79.16.79.57t-.61.36l-1.74-.16q-1-.08-2.35-.08-1.54,0-2.33.08L77,38.31q-.61,0-.61-.36t.57-.49a9.3,9.3,0,0,0,1.38-.41,1.36,1.36,0,0,0,.81-.75,5.29,5.29,0,0,0,.16-1.56V25.43a6.44,6.44,0,0,0-.3-2.31,1.91,1.91,0,0,0-1.15-1.05,5.14,5.14,0,0,0-1.24-.16q-.87,0-.87-.45t1.7-.69q1.7-.36,3-.69l1.22-.32q.49,0,.65,1,.2,1.78.36,3.32A6.7,6.7,0,0,1,85,21.22a6,6,0,0,1,3.42-1,3.83,3.83,0,0,1,2.25.59A1.82,1.82,0,0,1,91.5,22.35Z" transform="translate(-7.82 -11.61)"/><path class="cls-6" d="M18.39,70.95q0,.36-.61.36L16,71.15q-1-.08-2.35-.08-1.54,0-2.33.08l-1.76.16q-.61,0-.61-.36t.57-.49a9.27,9.27,0,0,0,1.38-.41,1.36,1.36,0,0,0,.81-.75,5.29,5.29,0,0,0,.16-1.56V46.44A4.47,4.47,0,0,0,11.75,45a1.42,1.42,0,0,0-.81-.69A8.35,8.35,0,0,0,9.8,44Q9,43.85,9,43.61c0-.19.11-.32.34-.4a10.15,10.15,0,0,1,1.58-.28q1.23-.16,2.23-.38t1.92-.47q.4,0,.4.65v25a5.94,5.94,0,0,0,.14,1.58,1.3,1.3,0,0,0,.83.73,6,6,0,0,0,1.15.32Q18.39,70.54,18.39,70.95Z" transform="translate(-7.82 -11.61)"/><path class="cls-6" d="M28.88,70.94c0,.24-.22.36-.65.36l-1.86-.12q-1.74-.12-2.19-.12-1.54,0-2.33.08l-1.76.15q-.61,0-.61-.36t.57-.49a9.22,9.22,0,0,0,1.38-.4,1.45,1.45,0,0,0,.79-.73,4.68,4.68,0,0,0,.18-1.58v-11a3.42,3.42,0,0,0-.12-1.11.88.88,0,0,0-.57-.47,4.58,4.58,0,0,0-1.28-.2q-.83,0-.83-.32t.4-.4q.73-.12,1.26-.24,1.3-.28,2.29-.61l2-.65q.44,0,.45.61V67.74a5.94,5.94,0,0,0,.14,1.58,1.3,1.3,0,0,0,.83.73,6.05,6.05,0,0,0,1.15.32Q28.88,70.53,28.88,70.94Z" transform="translate(-7.82 -11.61)"/><path class="cls-6" d="M52.45,70.95q0,.36-.61.36l-1.94-.12q-1.78-.12-2.15-.12-1.5,0-2.29.08l-1.76.16c-.43,0-.65-.15-.65-.45s.27-.38.81-.49A5,5,0,0,0,45,70.06a1.36,1.36,0,0,0,.81-.75A5.28,5.28,0,0,0,46,67.75V58.55q0-4.29-3.81-4.29a4.69,4.69,0,0,0-3.6,1.66,6,6,0,0,0-1.5,4.17v7.66a5.67,5.67,0,0,0,.14,1.56,1.44,1.44,0,0,0,.83.75,6,6,0,0,0,1.15.32q.79.16.79.57t-.65.36l-1.9-.12q-1.74-.12-2.15-.12-1.5,0-2.31.08l-1.78.16c-.4,0-.61-.15-.61-.45s.27-.38.81-.49a5,5,0,0,0,1.13-.32,1.36,1.36,0,0,0,.81-.75,5.28,5.28,0,0,0,.16-1.56V58a7.21,7.21,0,0,0-.18-1.9,1.53,1.53,0,0,0-.79-.93,3.91,3.91,0,0,0-1.13-.26q-.81-.1-.81-.38t1.5-.63a18.39,18.39,0,0,0,2.61-.71,9.38,9.38,0,0,1,1.24-.41q.61,0,.73,1.46t.2,2.51a7.47,7.47,0,0,1,6.68-3.85A6.48,6.48,0,0,1,48,54.3a5.1,5.1,0,0,1,1.54,4v9.44a5.67,5.67,0,0,0,.14,1.56,1.44,1.44,0,0,0,.83.75,6,6,0,0,0,1.15.32Q52.45,70.54,52.45,70.95Z" transform="translate(-7.82 -11.61)"/><path class="cls-6" d="M71.61,59.24q0,.61-.18.75a1.66,1.66,0,0,1-.87.14H58.69a9.5,9.5,0,0,0-.12,1q0,.57,0,1a9,9,0,0,0,1.82,5.9A5.79,5.79,0,0,0,65,70.3a5.56,5.56,0,0,0,4.29-1.73l.63-.68a.69.69,0,0,1,.51-.23c.27,0,.41.15.41.45q0,1.11-1.82,2.29a9.33,9.33,0,0,1-5.23,1.43,9.19,9.19,0,0,1-6.74-2.58,8.67,8.67,0,0,1-2.61-6.43,10.23,10.23,0,0,1,2.67-6.9,9,9,0,0,1,6.89-3,7.87,7.87,0,0,1,5.39,1.92A5.74,5.74,0,0,1,71.61,59.24ZM67.92,58a4.43,4.43,0,0,0-1.07-3.12A3.75,3.75,0,0,0,64,53.73a4.49,4.49,0,0,0-3.32,1.35A6.69,6.69,0,0,0,58.93,59H67.2Q67.92,59,67.92,58Z" transform="translate(-7.82 -11.61)"/><ellipse class="cls-6" cx="15.42" cy="35.92" rx="2.15" ry="2.12"/><ellipse class="cls-6" cx="5.12" cy="2.12" rx="2.15" ry="2.12"/><line class="cls-7" x1="82.69" y1="18.44" x2="113.14" y2="18.44"/><line class="cls-7" x1="112.64" y1="18.21" x2="112.64" y2="59.35"/><line class="cls-7" x1="65.86" y1="58.97" x2="113.14" y2="58.97"/></svg>